<svg width="18" height="18" viewBox="0 0 18 18" fill="none" xmlns="http://www.w3.org/2000/svg">
<path fill-rule="evenodd" clip-rule="evenodd" d="M9.06808 0.545898C6.78482 0.545898 6.49828 0.555882 5.6015 0.596692C4.70649 0.637677 4.09556 0.779374 3.561 0.987278C3.00805 1.20201 2.539 1.48926 2.07169 1.95674C1.60404 2.42404 1.3168 2.89309 1.10136 3.44587C0.892931 3.9806 0.751059 4.5917 0.710775 5.48637C0.670665 6.38314 0.660156 6.66986 0.660156 8.95313C0.660156 11.2364 0.670315 11.5221 0.71095 12.4188C0.75211 13.3138 0.893807 13.9248 1.10154 14.4593C1.31645 15.0123 1.60369 15.4813 2.07117 15.9486C2.5383 16.4163 3.00735 16.7042 3.55995 16.919C4.09486 17.1269 4.70596 17.2686 5.6008 17.3096C6.49757 17.3504 6.78395 17.3604 9.06703 17.3604C11.3505 17.3604 11.6361 17.3504 12.5329 17.3096C13.4279 17.2686 14.0396 17.1269 14.5745 16.919C15.1272 16.7042 15.5956 16.4163 16.0627 15.9486C16.5304 15.4813 16.8176 15.0123 17.0331 14.4595C17.2397 13.9248 17.3816 13.3137 17.4236 12.419C17.4639 11.5222 17.4744 11.2364 17.4744 8.95313C17.4744 6.66986 17.4639 6.38332 17.4236 5.48655C17.3816 4.59153 17.2397 3.9806 17.0331 3.44604C16.8176 2.89309 16.5304 2.42404 16.0627 1.95674C15.5951 1.48908 15.1274 1.20184 14.5739 0.987278C14.038 0.779374 13.4267 0.637677 12.5317 0.596692C11.6349 0.555882 11.3494 0.545898 9.06546 0.545898H9.06808ZM8.31385 2.06093C8.53769 2.06058 8.78746 2.06093 9.06805 2.06093C11.3128 2.06093 11.5788 2.06898 12.4653 2.10927C13.285 2.14675 13.7299 2.28372 14.0262 2.39879C14.4185 2.55117 14.6983 2.73333 14.9923 3.02758C15.2866 3.32184 15.4688 3.60208 15.6215 3.99441C15.7366 4.29042 15.8737 4.7353 15.911 5.55501C15.9513 6.44127 15.96 6.7075 15.96 8.95118C15.96 11.1949 15.9513 11.4611 15.911 12.3473C15.8735 13.1671 15.7366 13.6119 15.6215 13.9079C15.4691 14.3003 15.2866 14.5796 14.9923 14.8737C14.6981 15.168 14.4187 15.3501 14.0262 15.5025C13.7302 15.6181 13.285 15.7547 12.4653 15.7922C11.579 15.8325 11.3128 15.8413 9.06805 15.8413C6.82314 15.8413 6.55709 15.8325 5.67083 15.7922C4.85112 15.7544 4.40624 15.6174 4.10971 15.5023C3.71737 15.35 3.43713 15.1678 3.14288 14.8735C2.84863 14.5793 2.66647 14.2998 2.51374 13.9072C2.39866 13.6112 2.26152 13.1664 2.22421 12.3466C2.18393 11.4604 2.17587 11.1942 2.17587 8.94907C2.17587 6.70399 2.18393 6.43917 2.22421 5.5529C2.2617 4.7332 2.39866 4.28832 2.51374 3.99196C2.66612 3.59963 2.84863 3.31938 3.14288 3.02513C3.43713 2.73088 3.71737 2.54872 4.10971 2.39599C4.40607 2.28039 4.85112 2.14377 5.67083 2.10612C6.44639 2.07109 6.74695 2.06058 8.31385 2.05883V2.06093ZM13.5558 3.45688C12.9988 3.45688 12.5469 3.90824 12.5469 4.4654C12.5469 5.02238 12.9988 5.47427 13.5558 5.47427C14.1127 5.47427 14.5646 5.02238 14.5646 4.4654C14.5646 3.90842 14.1127 3.45688 13.5558 3.45688ZM9.0681 4.63564C6.68377 4.63564 4.75064 6.56878 4.75064 8.9531C4.75064 11.3374 6.68377 13.2697 9.0681 13.2697C11.4524 13.2697 13.3849 11.3374 13.3849 8.9531C13.3849 6.56878 11.4524 4.63564 9.0681 4.63564ZM9.06807 6.15069C10.6157 6.15069 11.8705 7.4053 11.8705 8.9531C11.8705 10.5007 10.6157 11.7555 9.06807 11.7555C7.52026 11.7555 6.26566 10.5007 6.26566 8.9531C6.26566 7.4053 7.52026 6.15069 9.06807 6.15069Z" fill="#323232"/>
</svg>
