<svg width="16" height="14" viewBox="0 0 16 14" fill="none" xmlns="http://www.w3.org/2000/svg">
<path fill-rule="evenodd" clip-rule="evenodd" d="M8.13956 4.00259L8.17264 4.54804L7.62133 4.48125C5.61457 4.22523 3.86141 3.35696 2.37288 1.89872L1.64515 1.17517L1.45771 1.70948C1.06077 2.90057 1.31437 4.15844 2.14133 5.00444C2.58238 5.47197 2.48314 5.53876 1.72234 5.26047C1.45771 5.17141 1.22616 5.10462 1.20411 5.13802C1.12692 5.21594 1.39155 6.22892 1.60105 6.62965C1.88773 7.18623 2.47211 7.73168 3.11163 8.0545L3.65191 8.31053L3.0124 8.32166C2.39493 8.32166 2.37288 8.33279 2.43904 8.56655C2.65956 9.29011 3.53063 10.0582 4.50093 10.3921L5.18455 10.6259L4.58914 10.9821C3.70704 11.4942 2.67059 11.7836 1.63413 11.8059C1.13795 11.817 0.72998 11.8615 0.72998 11.8949C0.72998 12.0062 2.07517 12.6296 2.85803 12.8745C5.2066 13.598 7.99622 13.2864 10.0912 12.0507C11.5797 11.1713 13.0683 9.42369 13.7629 7.73168C14.1378 6.83002 14.5127 5.18255 14.5127 4.3922C14.5127 3.88015 14.5458 3.81336 15.1632 3.20112C15.5271 2.84491 15.8689 2.4553 15.9351 2.34399C16.0453 2.13249 16.0343 2.13249 15.472 2.32172C14.5347 2.65567 14.4024 2.61114 14.8655 2.11022C15.2073 1.75401 15.6153 1.10838 15.6153 0.91914C15.6153 0.885745 15.4499 0.941403 15.2625 1.04159C15.064 1.1529 14.6229 1.31988 14.2922 1.42006L13.6968 1.6093L13.1565 1.24196C12.8588 1.04159 12.4398 0.818956 12.2192 0.752166C11.6569 0.596324 10.7969 0.618587 10.2897 0.796693C8.91139 1.29761 8.04033 2.58888 8.13956 4.00259Z" fill="#323232"/>
</svg>
