<svg width="52" height="51" viewBox="0 0 52 51" fill="none" xmlns="http://www.w3.org/2000/svg">
<circle cx="25.6142" cy="25.4999" r="25.4999" fill="#2C5478"/>
<mask id="mask0_84_536" style="mask-type:alpha" maskUnits="userSpaceOnUse" x="0" y="0" width="51" height="51">
<circle cx="25.4999" cy="25.4999" r="25.4999" fill="#FFC145"/>
</mask>
<g mask="url(#mask0_84_536)">
<path d="M41.2574 51.4358V46.2267C41.2574 43.4637 40.4273 40.8138 38.9496 38.86C37.4719 36.9062 35.4678 35.8086 33.3781 35.8086H17.6195C15.5298 35.8086 13.5257 36.9062 12.048 38.86C10.5704 40.8138 9.74023 43.4637 9.74023 46.2267V51.4358" fill="#F4D27F"/>
<path d="M25.4965 30.5301C29.8481 30.5301 33.3758 27.0024 33.3758 22.6508C33.3758 18.2992 29.8481 14.7715 25.4965 14.7715C21.1449 14.7715 17.6172 18.2992 17.6172 22.6508C17.6172 27.0024 21.1449 30.5301 25.4965 30.5301Z" fill="white"/>
</g>
</svg>
