<svg width="18" height="13" viewBox="0 0 18 13" fill="none" xmlns="http://www.w3.org/2000/svg">
<path fill-rule="evenodd" clip-rule="evenodd" d="M15.7258 0.533655C16.4493 0.732185 17.019 1.31715 17.2124 2.06C17.5638 3.40634 17.5638 6.21548 17.5638 6.21548C17.5638 6.21548 17.5638 9.02453 17.2124 10.371C17.019 11.1138 16.4493 11.6988 15.7258 11.8974C14.4147 12.2581 9.15665 12.2581 9.15665 12.2581C9.15665 12.2581 3.89865 12.2581 2.58743 11.8974C1.86394 11.6988 1.29416 11.1138 1.1008 10.371C0.749512 9.02453 0.749512 6.21548 0.749512 6.21548C0.749512 6.21548 0.749512 3.40634 1.1008 2.06C1.29416 1.31715 1.86394 0.732185 2.58743 0.533655C3.89865 0.172852 9.15665 0.172852 9.15665 0.172852C9.15665 0.172852 14.4147 0.172852 15.7258 0.533655ZM7.58033 3.85092V9.10538L11.7839 6.47825L7.58033 3.85092Z" fill="#323232"/>
</svg>
